# xmcd
#
# Track frame offsets:
#	150
#	12127
#	21996
#	32150
#	42219
#	54820
#	64894
#	74365
#	84622
#	94207
#	103758
#	113886
#	123371
#	135856
#	144455
#	153068
#	169158
#	178385
#	189044
#	198444
#
# Disc length: 2772 seconds
#
# Revision: 0
# Processed by: cddbd v1.5.2PL0 Copyright (c) Steve Scherf et al.
# Submitted via: EZCDAudioConverter 2.0.3.1
#
DISCID=0a0ad214
DTITLE=Various Artist - Country and Western Nuggets Cd 1
DYEAR=1900
DGENRE=Country
TTITLE0=Goodwin Bill - Your Lying Ways
TTITLE1=Skinner Jimmy - Careless Love
TTITLE2=Walker Billy - Changed My Mind
TTITLE3=Barton Billy - Doorway To Heaven
TTITLE4=McDonald Skeets - He'll Let You Live A Little
TTITLE5=Wright Buddy - You Let The Moon
TTITLE6=Barnes Benny - Poor Man's Riches
TTITLE7=Deaux Trio Jon - Tupelo County Jail
TTITLE8=Gray Claude - I'll Have Another Cup Of Coffee
TTITLE9=Young Faron - I Hear You Talking
TTITLE10=Tillis Mel - You Are The Reason
TTITLE11=Eanes Jim - Celebration
TTITLE12=Carter Bill - Pony Express
TTITLE13=Hart Freddie - Heaven Only Knows
TTITLE14=Mauldin Dickie - Fallin' In Love
TTITLE15=Dycus Gavin - Frisco's Tommy Tucker
TTITLE16=Smith Carl - Make The Waterwheel Roll
TTITLE17=Dickens Little Jimmy - Hay Ma (Hide The Daughter)
TTITLE18=Wagoner Porter - Tell Her Lies And Feed Her Candy
TTITLE19=Taylor Carmol - Tell Me What To Do
EXTD=
EXTT0=
EXTT1=
EXTT2=
EXTT3=
EXTT4=
EXTT5=
EXTT6=
EXTT7=
EXTT8=
EXTT9=
EXTT10=
EXTT11=
EXTT12=
EXTT13=
EXTT14=
EXTT15=
EXTT16=
EXTT17=
EXTT18=
EXTT19=
PLAYORDER=
